<?xml version="1.0" encoding="utf-8"?>
<!-- Generator: Adobe Illustrator 19.1.0, SVG Export Plug-In . SVG Version: 6.00 Build 0)  -->
<!DOCTYPE svg PUBLIC "-//W3C//DTD SVG 1.1//EN" "http://www.w3.org/Graphics/SVG/1.1/DTD/svg11.dtd">
<svg version="1.1" id="Layer_1" xmlns="http://www.w3.org/2000/svg" xmlns:xlink="http://www.w3.org/1999/xlink" x="0px" y="0px"
	 width="512px" height="512px" viewBox="40 -41 512 512" style="enable-background:new 40 -41 512 512;" xml:space="preserve">
<style type="text/css">
	.st0{fill:#F7B4B4;}
	.st1{fill:#FBC8C8;}
	.st2{fill:#FBD7D7;}
	.st3{fill:#F79392;}
	.st4{fill:#FFFFFF;}
	.st5{fill:#DA5A47;}
	.st6{fill:#3E3E3F;}
	.st7{fill:#84462D;}
	.st8{fill:#FACB1B;}
	.st9{fill:#F3B607;}
	.st10{fill:#FBE158;}
</style>
<g id="Multicolor">
	<g>
		<path class="st0" d="M315.2,308.8H296h-19.2c-6.2,0-12.1-2.6-16.2-7.2l-36.9-28.8v32.5c0,0,0,54.1,72.2,54.1s72.2-54.1,72.2-54.1
			v-32.5l-36.9,28.8C327.2,306.2,321.3,308.8,315.2,308.8z"/>
		<path class="st1" d="M260.7,301.6l-36.9-28.8v32.5c0,0,0,54.1,72.2,54.1v-50.5h-19.2C270.7,308.8,264.8,306.2,260.7,301.6z"/>
		<path class="st1" d="M418.7,158.8c0-8-7.2-16-14.4-16s-7.2,8-7.2,8v-8c-0.1-65-7.4-108.3-101.1-108.3S195.1,77.8,194.9,142.8v57.7
			l28.9,72.2l36.9,28.8c4.1,4.6,10,7.2,16.2,7.2H296h19.2c6.2,0,12.1-2.6,16.2-7.2l36.9-28.8l23.2-57.9
			C411.8,213.4,418.7,182.3,418.7,158.8z"/>
		<path class="st2" d="M194.9,142.8v8c0,0,0-8-7.2-8s-14.4,8-14.4,16c0,23.5,6.9,54.5,27.4,56l23.2,57.9l36.9,28.8
			c4.1,4.6,10,7.2,16.2,7.2H296V34.5C202.3,34.5,195.1,77.8,194.9,142.8z"/>
		<g>
			<path class="st3" d="M259.9,229.4h72.2c0,0,0,28.6-36.1,28.6S259.9,229.4,259.9,229.4z"/>
		</g>
		<g>
			<polygon class="st4" points="382.6,308.8 368.2,301.6 296,359.4 223.8,301.6 209.4,308.8 296,446 			"/>
		</g>
		<g>
			<path class="st5" d="M65,446l28.9-79.4c4.4-9.6,12.3-17.3,22-21.5l93.5-36.2L296,446H65z"/>
		</g>
		<g>
			<path class="st5" d="M527,446l-28.9-79.4c-4.4-9.6-12.3-17.3-22-21.5l-93.5-36.2L296,446H527z"/>
		</g>
		<g>
			<path class="st6" d="M274.3,157.5c0-8-6.5-14.4-14.4-14.4c0,0,0,0,0,0c0,0.2,0,0.3,0,0.4c0,8-6.4,14.4-14.4,14.4
				c0.2,7.8,6.6,14,14.4,14C267.8,171.9,274.3,165.5,274.3,157.5z"/>
		</g>
		<g>
			<path class="st6" d="M346.4,157.5c0-8-6.5-14.4-14.4-14.4c0,0,0,0,0,0c0,0.2,0,0.3,0,0.4c0,8-6.4,14.4-14.4,14.4
				c0.2,7.8,6.6,14,14.4,14C340,171.9,346.4,165.5,346.4,157.5z"/>
		</g>
		<g>
			<path class="st7" d="M187.7,113.9c0,15.6,7.2,85.7,7.2,93.8c0,0,0,0,7.2,14.4c0,0,0,0,7.2,0c0-10-7.2-93.8,21.7-115.5
				L187.7,113.9z"/>
		</g>
		<g>
			<path class="st7" d="M404.3,113.9c0,15.6-7.2,85.7-7.2,93.8c0,0,0,0-7.2,14.4c0,0,0,0-7.2,0c0-10,7.2-93.8-21.7-115.5
				L404.3,113.9z"/>
		</g>
		<g>
			<path class="st7" d="M238.2,229.4H296C296,196.6,252.7,202.1,238.2,229.4z"/>
			<path class="st7" d="M296,229.4h57.8C339.3,202.1,296,196.6,296,229.4z"/>
		</g>
		<g>
			<polygon class="st8" points="159.8,328 190.8,446 227.8,446 193.5,315 			"/>
		</g>
		<g>
			<polygon class="st8" points="433.2,328 402.2,446 365.2,446 399.5,315 			"/>
		</g>
		<g>
			<path class="st4" d="M136.4,338.1l-20.6,6.9c-9.7,4.2-17.5,11.9-22,21.5L65,446h86L136.4,338.1z"/>
		</g>
		<g>
			<path class="st4" d="M454.9,338.1l20.6,6.9c9.7,4.2,17.5,11.9,22,21.5l28.9,79.4h-86L454.9,338.1z"/>
		</g>
		<g>
			<g>
				<path class="st8" d="M187.7,113.9c0,0-7.2-108.3,108.3-108.3c0,57.8,0,108.3,0,108.3H187.7z"/>
			</g>
			<g>
				<path class="st9" d="M404.3,113.9c0,0,7.2-108.3-108.3-108.3c0,57.8,0,108.3,0,108.3H404.3z"/>
			</g>
			<path class="st10" d="M317.7,41.8V-1.6c0-8-6.5-14.4-14.4-14.4h-14.4c-8,0-14.4,6.5-14.4,14.4v43.3c0.5,12.7-13.9,55.7-50.5,57.8
				c35,0,47,0,50.5,0h1.4h40.6h1.4c3.6,0,15.5,0,50.5,0C331.5,97.5,317.2,54.5,317.7,41.8z"/>
			<g>
				<path class="st9" d="M425.9,115.7c0,3.3-2.2,6.1-5.4,7c-14,3.7-55.5,12.9-124.6,12.9s-110.5-9.2-124.6-12.9
					c-3.2-0.8-5.4-3.7-5.4-7v-1.8c0-8,6.5-14.4,14.4-14.4h231c8,0,14.4,6.5,14.4,14.4V115.7z"/>
			</g>
			<path class="st8" d="M180.5,99.5c-8,0-14.4,6.5-14.4,14.4v1.8c0,3.3,2.2,6.1,5.4,7c14,3.7,55.5,12.9,124.6,12.9V99.5H180.5z"/>
		</g>
	</g>
</g>
</svg>
